<svg width="36" height="11" viewBox="0 0 36 11" fill="none" xmlns="http://www.w3.org/2000/svg">
<path d="M35.2944 3.777C34.4424 6.049 33.188 7.824 31.5314 9.102C29.922 10.3327 28.0524 10.948 25.9224 10.948C24.455 10.948 23.0113 10.6877 21.5913 10.167C20.1713 9.599 18.5383 8.818 16.6923 7.824C15.1777 7.01933 13.947 6.45133 13.0003 6.12C12.101 5.74133 11.249 5.552 10.4443 5.552C7.84102 5.552 5.94768 7.06667 4.76435 10.096L0.646349 7.682C1.49835 5.41 2.72902 3.65867 4.33835 2.428C5.99502 1.15 7.88835 0.510998 10.0183 0.510998C11.4857 0.510998 12.9293 0.794999 14.3494 1.363C15.7694 1.88367 17.4024 2.641 19.2484 3.635C20.905 4.487 22.1594 5.10233 23.0114 5.481C23.8634 5.81233 24.6917 5.978 25.4964 5.978C28.0997 5.978 29.993 4.46333 31.1764 1.434L35.2944 3.777Z" fill="#E6B001"/>
</svg>
