<svg width="50" height="50" viewBox="0 0 50 50" fill="none" xmlns="http://www.w3.org/2000/svg">
<circle cx="25" cy="25" r="24" stroke="white" stroke-width="2"/>
<path fill-rule="evenodd" clip-rule="evenodd" d="M25.3846 13.8462C22.2507 13.8462 21.8584 13.86 20.6273 13.9154C19.3996 13.972 18.5607 14.167 17.8269 14.452C17.0567 14.7414 16.3589 15.1954 15.7823 15.7823C15.1954 16.359 14.7414 17.0568 14.4519 17.827C14.1669 18.5608 13.9719 19.3997 13.9154 20.6273C13.8588 21.8585 13.8461 22.2508 13.8461 25.3847C13.8461 28.5185 13.8588 28.9108 13.9154 30.142C13.9719 31.3697 14.1669 32.2085 14.4519 32.9423C14.7414 33.7125 15.1954 34.4103 15.7823 34.987C16.359 35.5738 17.0567 36.0278 17.8269 36.3173C18.5607 36.6023 19.3996 36.7973 20.6273 36.8539C21.8584 36.9093 22.2507 36.9231 25.3846 36.9231C28.5184 36.9231 28.9107 36.9093 30.1419 36.8539C31.3696 36.7973 32.2084 36.6023 32.9423 36.3173C33.7125 36.0279 34.4102 35.5739 34.9869 34.987C35.5738 34.4103 36.0278 33.7125 36.3173 32.9423C36.6023 32.2085 36.7973 31.3697 36.8538 30.142C36.9092 28.9108 36.9231 28.5185 36.9231 25.3847C36.9231 22.2508 36.9092 21.8585 36.8538 20.6273C36.7973 19.3997 36.6023 18.5608 36.3173 17.827C36.0278 17.0568 35.5738 16.359 34.9869 15.7823C34.4103 15.1954 33.7125 14.7414 32.9423 14.452C32.2084 14.167 31.3696 13.972 30.1419 13.9154C28.9107 13.86 28.5184 13.8462 25.3846 13.8462ZM25.3846 15.9254C28.4654 15.9254 28.83 15.937 30.0461 15.9923C31.1723 16.0443 31.7827 16.2312 32.19 16.3893C32.7277 16.5993 33.1131 16.8497 33.5169 17.2523C33.9207 17.6562 34.17 18.0416 34.38 18.5793C34.5369 18.9866 34.7261 19.597 34.7769 20.722C34.8323 21.9393 34.8438 22.3027 34.8438 25.3847C34.8438 28.4654 34.8323 28.83 34.7769 30.0462C34.725 31.1723 34.5369 31.7827 34.38 32.19C34.195 32.6913 33.9001 33.1447 33.5169 33.517C33.1131 33.9208 32.7277 34.17 32.19 34.38C31.7827 34.537 31.1723 34.7262 30.0473 34.777C28.8311 34.8323 28.4665 34.8439 25.3846 34.8439C22.3038 34.8439 21.9381 34.8323 20.7231 34.777C19.5969 34.725 18.9865 34.537 18.5792 34.38C18.078 34.1951 17.6245 33.9002 17.2523 33.517C16.869 33.1447 16.5741 32.6913 16.3892 32.19C16.2311 31.7827 16.0431 31.1723 15.9923 30.0473C15.9369 28.83 15.9254 28.4666 15.9254 25.3847C15.9254 22.3039 15.9369 21.9393 15.9923 20.7231C16.0442 19.597 16.2311 18.9866 16.3892 18.5793C16.5992 18.0416 16.8496 17.6562 17.2523 17.2523C17.6561 16.8485 18.0415 16.5993 18.5792 16.3893C18.9865 16.2312 19.5969 16.0431 20.7219 15.9923C21.9392 15.937 22.3027 15.9254 25.3846 15.9254ZM25.3846 29.2304C24.3646 29.2304 23.3864 28.8252 22.6652 28.104C21.944 27.3828 21.5388 26.4046 21.5388 25.3847C21.5388 24.3647 21.944 23.3865 22.6652 22.6653C23.3864 21.9441 24.3646 21.5389 25.3846 21.5389C26.4046 21.5389 27.3827 21.9441 28.104 22.6653C28.8252 23.3865 29.2304 24.3647 29.2304 25.3847C29.2304 26.4046 28.8252 27.3828 28.104 28.104C27.3827 28.8252 26.4046 29.2304 25.3846 29.2304ZM25.3846 19.4597C24.6065 19.4597 23.836 19.6129 23.1172 19.9107C22.3983 20.2084 21.7452 20.6449 21.195 21.195C20.6448 21.7452 20.2084 22.3984 19.9106 23.1173C19.6128 23.8361 19.4596 24.6066 19.4596 25.3847C19.4596 26.1627 19.6128 26.9332 19.9106 27.6521C20.2084 28.3709 20.6448 29.0241 21.195 29.5743C21.7452 30.1244 22.3983 30.5609 23.1172 30.8586C23.836 31.1564 24.6065 31.3097 25.3846 31.3097C26.956 31.3097 28.463 30.6854 29.5742 29.5743C30.6854 28.4631 31.3096 26.9561 31.3096 25.3847C31.3096 23.8132 30.6854 22.3062 29.5742 21.195C28.463 20.0839 26.956 19.4597 25.3846 19.4597ZM32.9284 19.2254C32.9284 19.4073 32.8926 19.5873 32.823 19.7553C32.7535 19.9233 32.6515 20.0759 32.5229 20.2045C32.3943 20.3331 32.2417 20.4351 32.0737 20.5046C31.9057 20.5742 31.7257 20.61 31.5438 20.61C31.362 20.61 31.1819 20.5742 31.014 20.5046C30.846 20.4351 30.6933 20.3331 30.5648 20.2045C30.4362 20.0759 30.3342 19.9233 30.2646 19.7553C30.195 19.5873 30.1592 19.4073 30.1592 19.2254C30.1592 18.8582 30.3051 18.506 30.5648 18.2464C30.8244 17.9867 31.1766 17.8408 31.5438 17.8408C31.911 17.8408 32.2632 17.9867 32.5229 18.2464C32.7826 18.506 32.9284 18.8582 32.9284 19.2254Z" fill="white"/>
</svg>
