<svg width="65" height="65" viewBox="0 0 65 65" fill="none" xmlns="http://www.w3.org/2000/svg">
<circle cx="32.5" cy="32.5" r="31.5" stroke="#ADB901" stroke-width="2"/>
<path fill-rule="evenodd" clip-rule="evenodd" d="M33 18C28.926 18 28.416 18.018 26.8155 18.09C25.2195 18.1635 24.129 18.417 23.175 18.7875C22.1737 19.1638 21.2666 19.754 20.517 20.517C19.754 21.2667 19.1638 22.1738 18.7875 23.175C18.417 24.129 18.1635 25.2195 18.09 26.8155C18.0165 28.416 18 28.926 18 33C18 37.074 18.0165 37.584 18.09 39.1845C18.1635 40.7805 18.417 41.871 18.7875 42.825C19.1639 43.8262 19.7541 44.7333 20.517 45.483C21.2667 46.2459 22.1738 46.8361 23.175 47.2125C24.129 47.583 25.2195 47.8365 26.8155 47.91C28.416 47.982 28.926 48 33 48C37.074 48 37.584 47.982 39.1845 47.91C40.7805 47.8365 41.871 47.583 42.825 47.2125C43.8262 46.8362 44.7333 46.246 45.483 45.483C46.246 44.7333 46.8362 43.8262 47.2125 42.825C47.583 41.871 47.8365 40.7805 47.91 39.1845C47.982 37.584 48 37.074 48 33C48 28.926 47.982 28.416 47.91 26.8155C47.8365 25.2195 47.583 24.129 47.2125 23.175C46.8362 22.1738 46.246 21.2667 45.483 20.517C44.7334 19.754 43.8263 19.1638 42.825 18.7875C41.871 18.417 40.7805 18.1635 39.1845 18.09C37.584 18.018 37.074 18 33 18ZM33 20.703C37.005 20.703 37.479 20.718 39.06 20.79C40.524 20.8575 41.3175 21.1005 41.847 21.306C42.546 21.579 43.047 21.9045 43.572 22.428C44.097 22.953 44.421 23.454 44.694 24.153C44.898 24.6825 45.144 25.476 45.21 26.9385C45.282 28.521 45.297 28.9935 45.297 33C45.297 37.005 45.282 37.479 45.21 39.06C45.1425 40.524 44.898 41.3175 44.694 41.847C44.4535 42.4986 44.0701 43.088 43.572 43.572C43.047 44.097 42.546 44.421 41.847 44.694C41.3175 44.898 40.524 45.144 39.0615 45.21C37.4805 45.282 37.0065 45.297 33 45.297C28.995 45.297 28.5195 45.282 26.94 45.21C25.476 45.1425 24.6825 44.898 24.153 44.694C23.5014 44.4536 22.9119 44.0702 22.428 43.572C21.9298 43.0881 21.5464 42.4986 21.306 41.847C21.1005 41.3175 20.856 40.524 20.79 39.0615C20.718 37.479 20.703 37.0065 20.703 33C20.703 28.995 20.718 28.521 20.79 26.94C20.8575 25.476 21.1005 24.6825 21.306 24.153C21.579 23.454 21.9045 22.953 22.428 22.428C22.953 21.903 23.454 21.579 24.153 21.306C24.6825 21.1005 25.476 20.856 26.9385 20.79C28.521 20.718 28.9935 20.703 33 20.703ZM33 37.9995C31.6741 37.9995 30.4024 37.4728 29.4648 36.5352C28.5272 35.5976 28.0005 34.326 28.0005 33C28.0005 31.6741 28.5272 30.4024 29.4648 29.4648C30.4024 28.5272 31.6741 28.0005 33 28.0005C34.326 28.0005 35.5976 28.5272 36.5352 29.4648C37.4728 30.4024 37.9995 31.6741 37.9995 33C37.9995 34.326 37.4728 35.5976 36.5352 36.5352C35.5976 37.4728 34.326 37.9995 33 37.9995ZM33 25.2975C31.9885 25.2975 30.9869 25.4967 30.0524 25.8838C29.1179 26.2709 28.2688 26.8383 27.5535 27.5535C26.8383 28.2688 26.2709 29.1179 25.8838 30.0524C25.4967 30.9869 25.2975 31.9885 25.2975 33C25.2975 34.0115 25.4967 35.0131 25.8838 35.9476C26.2709 36.8821 26.8383 37.7312 27.5535 38.4465C28.2688 39.1617 29.1179 39.7291 30.0524 40.1162C30.9869 40.5033 31.9885 40.7025 33 40.7025C35.0428 40.7025 37.002 39.891 38.4465 38.4465C39.891 37.002 40.7025 35.0428 40.7025 33C40.7025 30.9572 39.891 28.998 38.4465 27.5535C37.002 26.109 35.0428 25.2975 33 25.2975ZM42.807 24.993C42.807 25.2294 42.7604 25.4634 42.67 25.6818C42.5795 25.9002 42.4469 26.0986 42.2798 26.2658C42.1126 26.4329 41.9142 26.5655 41.6958 26.656C41.4774 26.7464 41.2434 26.793 41.007 26.793C40.7706 26.793 40.5366 26.7464 40.3182 26.656C40.0998 26.5655 39.9014 26.4329 39.7342 26.2658C39.5671 26.0986 39.4345 25.9002 39.344 25.6818C39.2536 25.4634 39.207 25.2294 39.207 24.993C39.207 24.5156 39.3966 24.0578 39.7342 23.7202C40.0718 23.3826 40.5296 23.193 41.007 23.193C41.4844 23.193 41.9422 23.3826 42.2798 23.7202C42.6174 24.0578 42.807 24.5156 42.807 24.993Z" fill="#E6B001"/>
</svg>
