<svg width="104" height="74" viewBox="0 0 104 74" fill="none" xmlns="http://www.w3.org/2000/svg">
<g filter="url(#filter0_d_20_26)">
<path d="M10.5117 58.3467C10.6257 58.2002 10.8698 57.8747 11.2441 57.3701C11.6348 56.8656 12.0824 56.1901 12.5869 55.3438C13.1077 54.4974 13.6611 53.4883 14.2471 52.3164C14.833 51.1283 15.3864 49.7855 15.9072 48.2881C16.4281 46.7907 16.8838 45.1387 17.2744 43.332C17.6813 41.5254 17.958 39.5804 18.1045 37.4971C18.3324 34.4372 18.5114 31.654 18.6416 29.1475C18.7881 26.641 18.8939 24.4925 18.959 22.7021C19.0404 20.9118 19.0892 19.5283 19.1055 18.5518C19.138 17.5589 19.1543 17.0544 19.1543 17.0381L20.1064 16.9404C20.5296 19.0238 20.9447 21.1641 21.3516 23.3613C21.7585 25.5586 22.1735 27.7477 22.5967 29.9287C23.0361 32.1097 23.4837 34.25 23.9395 36.3496C24.3952 38.4329 24.8916 40.4105 25.4287 42.2822C25.9658 44.1377 26.5436 45.8548 27.1621 47.4336C27.7806 48.9961 28.4561 50.347 29.1885 51.4863C29.9372 52.6257 30.751 53.5127 31.6299 54.1475C32.5251 54.7822 33.5016 55.0996 34.5596 55.0996C35.2432 55.0996 35.9512 54.8636 36.6836 54.3916C37.416 53.9196 38.0833 53.1546 38.6855 52.0967C39.2878 51.0387 39.7842 49.6634 40.1748 47.9707C40.5654 46.278 40.7607 44.2191 40.7607 41.7939C40.7607 40.3454 40.6794 38.7747 40.5166 37.082C40.3701 35.3893 40.1341 33.6478 39.8086 31.8574C39.4831 30.0508 39.0762 28.2441 38.5879 26.4375C38.1159 24.6309 37.5462 22.8975 36.8789 21.2373C36.2279 19.5609 35.4873 17.9902 34.6572 16.5254C33.8271 15.0605 32.9076 13.7829 31.8984 12.6924L32.5576 12.0088C33.6318 13.1644 34.6003 14.4827 35.4629 15.9639C36.3418 17.445 37.1149 19.0319 37.7822 20.7246C38.4658 22.4173 39.0518 24.1751 39.54 25.998C40.0283 27.821 40.4271 29.6439 40.7363 31.4668C41.0618 33.2897 41.2979 35.0801 41.4443 36.8379C41.6071 38.5957 41.6885 40.2477 41.6885 41.7939C41.6885 43.8285 41.5176 45.7816 41.1758 47.6533C40.834 49.5251 40.305 51.1771 39.5889 52.6094C38.889 54.0417 38.002 55.181 36.9277 56.0273C35.8535 56.8737 34.5758 57.2969 33.0947 57.2969C31.9229 57.2969 30.8486 57.0039 29.8721 56.418C28.9118 55.8483 28.0329 55.0508 27.2354 54.0254C26.4378 53 25.7217 51.7874 25.0869 50.3877C24.4684 48.9717 23.915 47.4417 23.4268 45.7979C22.9385 44.1377 22.5072 42.3962 22.1328 40.5732C21.7585 38.734 21.4329 36.8704 21.1562 34.9824C20.8796 33.0944 20.6354 31.2145 20.4238 29.3428C20.2285 27.471 20.0576 25.6725 19.9111 23.9473C19.8298 25.7051 19.6995 27.7314 19.5205 30.0264C19.3577 32.305 19.2031 34.8115 19.0566 37.5459C18.8939 40.3454 18.6009 42.86 18.1777 45.0898C17.7708 47.3197 17.2256 49.3053 16.542 51.0469C15.8747 52.7884 15.0853 54.3102 14.1738 55.6123C13.2624 56.9307 12.2207 58.0618 11.0488 59.0059L10.5117 58.3467ZM67.2012 57.5898V57.6387C67.1849 57.6387 67.0791 57.4759 66.8838 57.1504C66.7048 56.8411 66.4688 56.3854 66.1758 55.7832C65.8991 55.181 65.598 54.4486 65.2725 53.5859C64.9469 52.7396 64.6458 51.7793 64.3691 50.7051C64.0924 49.6146 63.8564 48.4346 63.6611 47.165C63.4821 45.8792 63.3926 44.5202 63.3926 43.0879C63.3926 42.2415 63.417 41.387 63.4658 40.5244C63.5309 39.6618 63.596 38.8317 63.6611 38.0342C63.7262 37.2367 63.7832 36.488 63.832 35.7881C63.8971 35.0719 63.9297 34.4453 63.9297 33.9082C63.9297 33.3548 63.8809 32.9235 63.7832 32.6143C63.6855 32.305 63.474 32.1504 63.1484 32.1504C62.8066 32.1504 62.3428 32.5329 61.7568 33.2979C61.1709 34.0628 60.5117 35.0882 59.7793 36.374C59.0632 37.6436 58.29 39.1165 57.46 40.793C56.6462 42.4694 55.8324 44.2272 55.0186 46.0664C54.221 47.9056 53.4398 49.7692 52.6748 51.6572C51.9261 53.529 51.2507 55.2949 50.6484 56.9551L49.8428 56.4424C49.859 56.3936 49.8997 56.2715 49.9648 56.0762C50.0299 55.8809 50.1113 55.5391 50.209 55.0508C50.3066 54.5788 50.4043 53.9277 50.502 53.0977C50.5996 52.2676 50.6891 51.1852 50.7705 49.8506C50.8682 48.4997 50.9414 46.8639 50.9902 44.9434C51.0553 43.0065 51.0879 40.7116 51.0879 38.0586C51.0879 35.4707 50.9577 33.1676 50.6973 31.1494C50.4368 29.1312 50.1032 27.3652 49.6963 25.8516C49.3057 24.3379 48.8743 23.0521 48.4023 21.9941C47.9466 20.9362 47.5153 20.0736 47.1084 19.4062C46.7178 18.7389 46.3841 18.2588 46.1074 17.9658C45.8307 17.6729 45.6924 17.5182 45.6924 17.502L46.1807 16.8916C46.2783 16.9404 46.5225 17.0951 46.9131 17.3555C47.32 17.5996 47.792 17.9821 48.3291 18.5029C48.8662 19.0075 49.4359 19.6667 50.0381 20.4805C50.6403 21.2943 51.1937 22.2871 51.6982 23.459C52.2191 24.6146 52.6423 25.9655 52.9678 27.5117C53.3096 29.0579 53.4805 30.8239 53.4805 32.8096C53.4805 34.3883 53.4235 36.0648 53.3096 37.8389C53.1956 39.613 53.041 41.3545 52.8457 43.0635C52.6667 44.7725 52.4714 46.3675 52.2598 47.8486C52.0482 49.3298 51.8447 50.5667 51.6494 51.5596C52.1702 50.2412 52.7643 48.7764 53.4316 47.165C54.1152 45.5537 54.8477 43.918 55.6289 42.2578C56.4102 40.5977 57.224 38.9945 58.0703 37.4482C58.9329 35.8857 59.7956 34.4941 60.6582 33.2734C61.5208 32.0527 62.3753 31.0762 63.2217 30.3438C64.068 29.6113 64.8737 29.2451 65.6387 29.2451C65.9642 29.2451 66.249 29.5055 66.4932 30.0264C66.7536 30.5309 66.8838 31.2715 66.8838 32.248C66.8838 32.9154 66.8431 33.7129 66.7617 34.6406C66.6803 35.5521 66.5908 36.5775 66.4932 37.7168C66.3955 38.8561 66.306 40.1012 66.2246 41.4521C66.1432 42.7868 66.1025 44.2191 66.1025 45.749C66.1025 47.165 66.1839 48.638 66.3467 50.168C66.5094 51.6979 66.8431 53.2767 67.3477 54.9043C67.543 53.9115 67.8034 52.6745 68.1289 51.1934C68.4544 49.7122 68.8451 48.0684 69.3008 46.2617C69.7565 44.4551 70.2692 42.5345 70.8389 40.5C71.4248 38.4492 72.0677 36.3659 72.7676 34.25C73.4837 32.1178 74.2568 29.9938 75.0869 27.8779C75.9333 25.7458 76.8366 23.695 77.7969 21.7256C78.7734 19.7562 79.8151 17.9089 80.9219 16.1836C82.0286 14.4583 83.2005 12.9284 84.4375 11.5938C85.6745 10.2428 86.9766 9.14421 88.3438 8.29785C89.7272 7.43522 91.1758 6.88997 92.6895 6.66211L93.0801 8.68848C91.3223 8.96517 89.6621 9.64062 88.0996 10.7148C86.5534 11.7891 85.0967 13.1481 83.7295 14.792C82.3623 16.4196 81.0846 18.2832 79.8965 20.3828C78.7246 22.4661 77.6341 24.6553 76.625 26.9502C75.6322 29.2451 74.7207 31.5889 73.8906 33.9814C73.0768 36.374 72.3444 38.7015 71.6934 40.9639C71.0423 43.21 70.4727 45.334 69.9844 47.3359C69.5124 49.3216 69.1136 51.0632 68.7881 52.5605C68.4788 54.0579 68.2428 55.2461 68.0801 56.125C67.9173 57.0202 67.8359 57.4922 67.8359 57.541L67.2012 57.5898Z" fill="#E6B001"/>
<path d="M10.5117 58.3467L9.72237 57.7327L9.23359 58.3612L9.73648 58.9784L10.5117 58.3467ZM11.2441 57.3701L10.4534 56.7579L10.4471 56.766L10.441 56.7743L11.2441 57.3701ZM12.5869 55.3438L11.7352 54.8196L11.728 54.8317L12.5869 55.3438ZM14.2471 52.3164L15.1415 52.7636L15.1439 52.7587L14.2471 52.3164ZM17.2744 43.332L16.2988 43.1123L16.297 43.1207L17.2744 43.332ZM18.1045 37.4971L17.1072 37.4228L17.107 37.4269L18.1045 37.4971ZM18.6416 29.1475L17.6433 29.0891L17.6429 29.0956L18.6416 29.1475ZM18.959 22.7021L17.96 22.6567L17.9596 22.6658L18.959 22.7021ZM19.1055 18.5518L18.106 18.519L18.1057 18.527L18.1056 18.5351L19.1055 18.5518ZM19.1543 17.0381L19.0523 16.0433L18.1543 16.1354V17.0381H19.1543ZM20.1064 16.9404L21.0864 16.7414L20.906 15.8532L20.0044 15.9456L20.1064 16.9404ZM22.5967 29.9287L21.615 30.1192L21.6164 30.1262L22.5967 29.9287ZM23.9395 36.3496L22.9622 36.5617L22.9626 36.5633L23.9395 36.3496ZM25.4287 42.2822L24.4675 42.5581L24.4681 42.5603L25.4287 42.2822ZM27.1621 47.4336L26.231 47.7984L26.2323 47.8016L27.1621 47.4336ZM29.1885 51.4863L28.3473 52.0271L28.3528 52.0355L29.1885 51.4863ZM31.6299 54.1475L31.0444 54.9582L31.0515 54.9632L31.6299 54.1475ZM40.5166 37.082L39.5203 37.1683L39.5212 37.1777L40.5166 37.082ZM39.8086 31.8574L38.8244 32.0347L38.8247 32.0363L39.8086 31.8574ZM38.5879 26.4375L37.6203 26.6903L37.6225 26.6984L38.5879 26.4375ZM36.8789 21.2373L35.9467 21.5993L35.9511 21.6103L36.8789 21.2373ZM31.8984 12.6924L31.1786 11.9982L30.5229 12.6782L31.1645 13.3716L31.8984 12.6924ZM32.5576 12.0088L33.29 11.3279L32.5709 10.5543L31.8378 11.3147L32.5576 12.0088ZM35.4629 15.9639L34.5987 16.4672L34.6029 16.4742L35.4629 15.9639ZM37.7822 20.7246L36.8519 21.0914L36.855 21.0991L37.7822 20.7246ZM40.7363 31.4668L39.7504 31.6341L39.7519 31.6426L40.7363 31.4668ZM41.4443 36.8379L40.4477 36.9209L40.4486 36.9301L41.4443 36.8379ZM39.5889 52.6094L38.6944 52.1621L38.6904 52.1703L39.5889 52.6094ZM29.8721 56.418L30.3866 55.5605L30.3823 55.5579L29.8721 56.418ZM27.2354 54.0254L28.0247 53.4114L27.2354 54.0254ZM25.0869 50.3877L24.1704 50.788L24.1762 50.8007L25.0869 50.3877ZM23.4268 45.7979L22.4674 46.08L22.4682 46.0826L23.4268 45.7979ZM22.1328 40.5732L21.1529 40.7727L21.1533 40.7744L22.1328 40.5732ZM20.4238 29.3428L19.4292 29.4466L19.4302 29.4551L20.4238 29.3428ZM19.9111 23.9473L20.9075 23.8627L18.9122 23.901L19.9111 23.9473ZM19.5205 30.0264L18.5235 29.9486L18.523 29.9551L19.5205 30.0264ZM19.0566 37.5459L20.055 37.6039L20.0552 37.5994L19.0566 37.5459ZM18.1777 45.0898L17.1952 44.9034L17.194 44.9103L18.1777 45.0898ZM16.542 51.0469L15.6111 50.6815L15.6082 50.6891L16.542 51.0469ZM14.1738 55.6123L13.3546 55.0388L13.3513 55.0436L14.1738 55.6123ZM11.0488 59.0059L10.2736 59.6375L10.9017 60.4084L11.6762 59.7846L11.0488 59.0059ZM11.3011 58.9606C11.4233 58.8034 11.6746 58.4682 12.0472 57.966L10.441 56.7743C10.065 57.2812 9.82797 57.597 9.72237 57.7327L11.3011 58.9606ZM12.0349 57.9823C12.4597 57.4335 12.9304 56.7204 13.4459 55.8558L11.728 54.8317C11.2343 55.6598 10.8098 56.2976 10.4534 56.7579L12.0349 57.9823ZM13.4386 55.8678C13.9787 54.9901 14.5463 53.954 15.1415 52.7636L13.3526 51.8692C12.776 53.0225 12.2368 54.0047 11.7353 54.8197L13.4386 55.8678ZM15.1439 52.7587C15.7512 51.5273 16.3199 50.1456 16.8517 48.6166L14.9627 47.9596C14.4529 49.4254 13.9148 50.7292 13.3502 51.8741L15.1439 52.7587ZM16.8517 48.6166C17.3879 47.0752 17.854 45.3834 18.2518 43.5434L16.297 43.1207C15.9136 44.894 15.4683 46.5062 14.9627 47.9596L16.8517 48.6166ZM18.25 43.5518C18.6693 41.6901 18.9524 39.6946 19.102 37.5672L17.107 37.4269C16.9636 39.4662 16.6934 41.3607 16.2989 43.1123L18.25 43.5518ZM19.1017 37.5713C19.33 34.5055 19.5096 31.7147 19.6403 29.1993L17.6429 29.0956C17.5132 31.5932 17.3347 34.3688 17.1073 37.4228L19.1017 37.5713ZM19.6399 29.2058C19.7867 26.6946 19.8929 24.5384 19.9583 22.7385L17.9596 22.6658C17.8949 24.4466 17.7895 26.5873 17.6433 29.0891L19.6399 29.2058ZM19.958 22.7476C20.0395 20.9541 20.0888 19.5594 20.1053 18.5684L18.1056 18.5351C18.0896 19.4973 18.0413 20.8695 17.96 22.6567L19.958 22.7476ZM20.1049 18.5845C20.1368 17.6121 20.1543 17.0762 20.1543 17.0381H18.1543C18.1543 17.0325 18.1392 17.5057 18.106 18.519L20.1049 18.5845ZM19.2563 18.0329L20.2085 17.9352L20.0044 15.9456L19.0523 16.0433L19.2563 18.0329ZM19.1265 17.1395C19.5484 19.2169 19.9624 21.3515 20.3683 23.5434L22.3348 23.1792C21.9269 20.9766 21.5108 18.8306 21.0864 16.7414L19.1265 17.1395ZM20.3683 23.5434C20.7757 25.7435 21.1913 27.9354 21.615 30.1192L23.5784 29.7382C23.1557 27.5601 22.7412 25.3737 22.3348 23.1792L20.3683 23.5434ZM21.6164 30.1262C22.0568 32.3119 22.5054 34.4571 22.9622 36.5617L24.9167 36.1375C24.4621 34.0429 24.0155 31.9075 23.577 29.7312L21.6164 30.1262ZM22.9626 36.5633C23.4224 38.6656 23.924 40.6639 24.4675 42.5581L26.3899 42.0064C25.8592 40.157 25.3679 38.2003 24.9164 36.1359L22.9626 36.5633ZM24.4681 42.5603C25.0126 44.4411 25.6 46.1876 26.231 47.7984L28.0932 47.0688C27.4873 45.5221 26.919 43.8343 26.3893 42.0042L24.4681 42.5603ZM26.2323 47.8016C26.8692 49.4107 27.5726 50.822 28.3473 52.0271L30.0297 50.9456C29.3395 49.872 28.692 48.5815 28.0919 47.0655L26.2323 47.8016ZM28.3528 52.0355C29.1518 53.2514 30.0451 54.2364 31.0444 54.9581L32.2154 53.3368C31.4568 52.7889 30.7226 51.9999 30.0242 50.9371L28.3528 52.0355ZM31.0515 54.9632C32.109 55.7131 33.2863 56.0996 34.5596 56.0996V54.0996C33.717 54.0996 32.9412 53.8514 32.2083 53.3317L31.0515 54.9632ZM34.5596 56.0996C35.4817 56.0996 36.3754 55.7799 37.2253 55.2322L36.1419 53.551C35.527 53.9473 35.0047 54.0996 34.5596 54.0996V56.0996ZM37.2253 55.2322C38.136 54.6452 38.9026 53.7369 39.5546 52.5914L37.8165 51.602C37.2641 52.5724 36.696 53.194 36.1419 53.551L37.2253 55.2322ZM39.5546 52.5914C40.2205 51.4216 40.7452 49.9461 41.1492 48.1956L39.2004 47.7458C38.8231 49.3808 38.355 50.6559 37.8165 51.602L39.5546 52.5914ZM41.1492 48.1956C41.562 46.4065 41.7607 44.2674 41.7607 41.7939H39.7607C39.7607 44.1707 39.5688 46.1495 39.2004 47.7458L41.1492 48.1956ZM41.7607 41.7939C41.7607 40.3085 41.6773 38.7055 41.512 36.9863L39.5212 37.1777C39.6814 38.8439 39.7607 40.3823 39.7607 41.7939H41.7607ZM41.5129 36.9958C41.3635 35.2699 41.1232 33.4974 40.7925 31.6785L38.8247 32.0363C39.1451 33.7981 39.3767 35.5087 39.5203 37.1682L41.5129 36.9958ZM40.7927 31.6801C40.4621 29.8448 40.0488 28.0103 39.5533 26.1766L37.6225 26.6984C38.1035 28.478 38.5041 30.2568 38.8244 32.0347L40.7927 31.6801ZM39.5554 26.1847C39.0732 24.339 38.4905 22.5653 37.8068 20.8643L35.9511 21.6103C36.602 23.2296 37.1586 24.9227 37.6204 26.6903L39.5554 26.1847ZM37.8111 20.8753C37.1437 19.1568 36.3827 17.5421 35.5272 16.0324L33.7872 17.0184C34.5919 18.4384 35.312 19.965 35.9467 21.5993L37.8111 20.8753ZM35.5272 16.0324C34.6641 14.5092 33.7003 13.1672 32.6324 12.0132L31.1645 13.3716C32.1148 14.3985 32.9902 15.6119 33.7872 17.0184L35.5272 16.0324ZM32.6183 13.3865L33.2775 12.7029L31.8378 11.3147L31.1786 11.9982L32.6183 13.3865ZM31.8252 12.6896C32.845 13.7867 33.7702 15.0445 34.5988 16.4671L36.327 15.4606C35.4304 13.921 34.4187 12.5421 33.29 11.3279L31.8252 12.6896ZM34.6029 16.4742C35.4531 17.9069 36.2031 19.4455 36.8519 21.0914L38.7125 20.3579C38.0267 18.6183 37.2305 16.9831 36.3229 15.4535L34.6029 16.4742ZM36.855 21.0991C37.5228 22.7528 38.096 24.4719 38.5741 26.2568L40.506 25.7393C40.0075 23.8784 39.4088 22.0819 38.7095 20.3501L36.855 21.0991ZM38.5741 26.2568C39.0545 28.0502 39.4465 29.8426 39.7504 31.6341L41.7222 31.2995C41.4077 29.4452 41.0022 27.5918 40.506 25.7393L38.5741 26.2568ZM39.7519 31.6426C40.0722 33.4363 40.304 35.1957 40.4478 36.9209L42.4409 36.7548C42.2917 34.9645 42.0515 33.1431 41.7208 31.291L39.7519 31.6426ZM40.4486 36.9301C40.6089 38.6614 40.6885 40.2824 40.6885 41.7939H42.6885C42.6885 40.213 42.6053 38.53 42.4401 36.7457L40.4486 36.9301ZM40.6885 41.7939C40.6885 43.7723 40.5223 45.6651 40.192 47.4737L42.1595 47.833C42.5128 45.898 42.6885 43.8846 42.6885 41.7939H40.6885ZM40.192 47.4737C39.8641 49.2694 39.3613 50.8285 38.6944 52.1622L40.4833 53.0566C41.2488 51.5257 41.8038 49.7807 42.1595 47.833L40.192 47.4737ZM38.6904 52.1703C38.0456 53.4899 37.247 54.5027 36.3089 55.2419L37.5466 56.8128C38.7569 55.8593 39.7324 54.5934 40.4873 53.0484L38.6904 52.1703ZM36.3089 55.2419C35.426 55.9374 34.3712 56.2969 33.0947 56.2969V58.2969C34.7805 58.2969 36.281 57.81 37.5466 56.8128L36.3089 55.2419ZM33.0947 56.2969C32.0986 56.2969 31.2031 56.0504 30.3866 55.5605L29.3576 57.2755C30.4942 57.9574 31.7471 58.2969 33.0947 58.2969V56.2969ZM30.3823 55.5579C29.5457 55.0616 28.7578 54.354 28.0247 53.4114L26.446 54.6393C27.308 55.7476 28.2779 56.635 29.3619 57.278L30.3823 55.5579ZM28.0247 53.4114C27.2832 52.4581 26.6057 51.3156 25.9976 49.9747L24.1762 50.8007C24.8377 52.2593 25.5924 53.5419 26.446 54.6393L28.0247 53.4114ZM26.0033 49.9874C25.4029 48.6128 24.8632 47.1219 24.3854 45.5131L22.4682 46.0826C22.9669 47.7616 23.5339 49.3305 24.1705 50.788L26.0033 49.9874ZM24.3861 45.5157C23.9063 43.8841 23.4815 42.1697 23.1124 40.3721L21.1533 40.7744C21.5328 42.6226 21.9707 44.3912 22.4674 46.08L24.3861 45.5157ZM23.1127 40.3738C22.7421 38.553 22.4197 36.7075 22.1457 34.8374L20.1668 35.1274C20.4461 37.0334 20.7748 38.9151 21.1529 40.7727L23.1127 40.3738ZM22.1457 34.8374C21.8706 32.9601 21.6278 31.0911 21.4175 29.2304L19.4302 29.4551C19.643 31.3379 19.8886 33.2287 20.1668 35.1274L22.1457 34.8374ZM21.4184 29.239C21.2237 27.3731 21.0534 25.581 20.9075 23.8627L18.9147 24.0319C19.0618 25.764 19.2333 27.569 19.4292 29.4466L21.4184 29.239ZM18.9122 23.901C18.8314 25.6457 18.702 27.6612 18.5235 29.9486L20.5175 30.1041C20.6971 27.8017 20.8281 25.7645 20.9101 23.9935L18.9122 23.901ZM18.523 29.9551C18.3598 32.2407 18.2048 34.7532 18.0581 37.4924L20.0552 37.5994C20.2014 34.8698 20.3557 32.3693 20.518 30.0976L18.523 29.9551ZM18.0583 37.4879C17.8975 40.2538 17.6088 42.7245 17.1953 44.9034L19.1602 45.2763C19.593 42.9956 19.8902 40.4369 20.055 37.6039L18.0583 37.4879ZM17.194 44.9103C16.7963 47.0894 16.2668 49.0111 15.6111 50.6815L17.4728 51.4123C18.1844 49.5996 18.7453 47.5499 19.1615 45.2694L17.194 44.9103ZM15.6082 50.6891C14.9652 52.3671 14.2119 53.8141 13.3546 55.0388L14.9931 56.1858C15.9586 54.8064 16.7841 53.2097 17.4758 51.4047L15.6082 50.6891ZM13.3513 55.0436C12.4909 56.2881 11.5138 57.3472 10.4215 58.2271L11.6762 59.7846C12.9276 58.7765 14.0338 57.5732 14.9964 56.181L13.3513 55.0436ZM11.8241 58.3742L11.287 57.715L9.73648 58.9784L10.2736 59.6375L11.8241 58.3742ZM67.2012 57.5898L67.1245 56.5928L66.2012 56.6638V57.5898H67.2012ZM67.2012 57.6387V58.6387H68.2012V57.6387H67.2012ZM66.8838 57.1504L66.0184 57.6514L66.0223 57.6582L66.0263 57.6649L66.8838 57.1504ZM66.1758 55.7832L65.2671 56.2007L65.2717 56.2107L65.2765 56.2207L66.1758 55.7832ZM65.2725 53.5859L66.2081 53.2329L66.2058 53.227L65.2725 53.5859ZM64.3691 50.7051L63.3998 50.951L63.4007 50.9545L64.3691 50.7051ZM63.6611 47.165L62.6707 47.3029L62.6717 47.31L62.6728 47.3171L63.6611 47.165ZM63.4658 40.5244L62.4687 40.4492L62.4679 40.4585L62.4674 40.4679L63.4658 40.5244ZM63.832 35.7881L62.8361 35.6975L62.8352 35.708L62.8345 35.7185L63.832 35.7881ZM59.7793 36.374L58.9104 35.8791L58.9083 35.8827L59.7793 36.374ZM57.46 40.793L56.5638 40.3492L56.5604 40.3563L57.46 40.793ZM55.0186 46.0664L54.1041 45.6618L54.1011 45.6686L55.0186 46.0664ZM52.6748 51.6572L51.748 51.2817L51.7463 51.2858L52.6748 51.6572ZM50.6484 56.9551L50.1116 57.7987L51.1634 58.4681L51.5885 57.2961L50.6484 56.9551ZM49.8428 56.4424L48.8941 56.1262L48.6472 56.8669L49.3059 57.286L49.8428 56.4424ZM50.209 55.0508L49.2297 54.8482L49.2284 54.8547L50.209 55.0508ZM50.7705 49.8506L49.773 49.7785L49.7724 49.7897L50.7705 49.8506ZM50.9902 44.9434L49.9908 44.9098L49.9906 44.9179L50.9902 44.9434ZM50.6973 31.1494L49.7055 31.2774L50.6973 31.1494ZM49.6963 25.8516L48.728 26.1015L48.7306 26.1112L49.6963 25.8516ZM48.4023 21.9941L47.4839 22.3898L47.4891 22.4016L48.4023 21.9941ZM47.1084 19.4062L46.2454 19.9114L46.2499 19.9192L46.2546 19.9269L47.1084 19.4062ZM45.6924 17.502L44.9115 16.8773L44.6924 17.1512V17.502H45.6924ZM46.1807 16.8916L46.6279 15.9972L45.9048 15.6356L45.3998 16.2669L46.1807 16.8916ZM46.9131 17.3555L46.3584 18.1875L46.3782 18.2007L46.3986 18.213L46.9131 17.3555ZM48.3291 18.5029L47.633 19.2208L47.6386 19.2263L47.6444 19.2318L48.3291 18.5029ZM50.0381 20.4805L50.8419 19.8856L50.0381 20.4805ZM51.6982 23.459L50.7798 23.8544L50.7831 23.8622L50.7866 23.8699L51.6982 23.459ZM52.9678 27.5117L51.9892 27.7177L51.9913 27.7276L52.9678 27.5117ZM52.8457 43.0635L51.8521 42.9499L51.8511 42.9593L52.8457 43.0635ZM51.6494 51.5596L50.6682 51.3665L52.5795 51.927L51.6494 51.5596ZM53.4316 47.165L52.511 46.7745L52.5077 46.7824L53.4316 47.165ZM58.0703 37.4482L57.1949 36.9649L57.1931 36.9681L58.0703 37.4482ZM60.6582 33.2734L59.8415 32.6963L60.6582 33.2734ZM66.4932 30.0264L65.5877 30.4508L65.5958 30.4681L65.6045 30.485L66.4932 30.0264ZM66.7617 34.6406L67.7578 34.7296L67.7579 34.728L66.7617 34.6406ZM66.4932 37.7168L65.4968 37.6314L66.4932 37.7168ZM66.2246 41.4521L67.2228 41.513L67.2228 41.5123L66.2246 41.4521ZM67.3477 54.9043L66.3925 55.2004L68.3288 55.0973L67.3477 54.9043ZM69.3008 46.2617L68.3312 46.0171L69.3008 46.2617ZM70.8389 40.5L69.8773 40.2253L69.8759 40.2304L70.8389 40.5ZM72.7676 34.25L71.8196 33.9316L71.8182 33.936L72.7676 34.25ZM75.0869 27.8779L74.1575 27.509L74.156 27.5127L75.0869 27.8779ZM77.7969 21.7256L76.901 21.2813L76.898 21.2873L77.7969 21.7256ZM84.4375 11.5938L85.1709 12.2735L85.175 12.2691L84.4375 11.5938ZM88.3438 8.29785L88.8701 9.14812L88.8728 9.14641L88.3438 8.29785ZM92.6895 6.66211L93.6714 6.47282L93.4897 5.53038L92.5406 5.67325L92.6895 6.66211ZM93.0801 8.68848L93.2356 9.67631L94.2579 9.51539L94.062 8.49919L93.0801 8.68848ZM88.0996 10.7148L87.5331 9.89079L87.5291 9.89359L88.0996 10.7148ZM83.7295 14.792L84.4952 15.4352L84.4983 15.4314L83.7295 14.792ZM79.8965 20.3828L79.0262 19.8903L79.0249 19.8926L79.8965 20.3828ZM76.625 26.9502L75.7096 26.5477L75.7072 26.5531L76.625 26.9502ZM73.8906 33.9814L72.9459 33.6537L72.9439 33.6594L73.8906 33.9814ZM71.6934 40.9639L72.6538 41.2423L72.6544 41.2404L71.6934 40.9639ZM69.9844 47.3359L69.0128 47.099L69.0115 47.1047L69.9844 47.3359ZM68.7881 52.5605L67.8109 52.3481L67.8088 52.3583L68.7881 52.5605ZM68.0801 56.125L67.0968 55.9429L67.0962 55.9461L68.0801 56.125ZM67.8359 57.541L67.9126 58.5381L68.8359 58.467V57.541H67.8359ZM66.2012 57.5898V57.6387H68.2012V57.5898H66.2012ZM67.2012 56.6387C67.3993 56.6387 67.548 56.6975 67.6211 56.7315C67.701 56.7686 67.7594 56.8089 67.7923 56.8332C67.857 56.8812 67.9003 56.9259 67.9159 56.9423C67.951 56.9792 67.972 57.0079 67.9722 57.0082C67.9774 57.0152 67.9711 57.0071 67.9481 56.9716C67.9052 56.9057 67.8374 56.7961 67.7413 56.6359L66.0263 57.6649C66.1255 57.8302 66.2082 57.9647 66.2712 58.0616C66.301 58.1075 66.3364 58.1605 66.3722 58.2082C66.3877 58.2288 66.4211 58.2727 66.4659 58.3198C66.4863 58.3413 66.5337 58.3898 66.6018 58.4403C66.6214 58.4548 66.8514 58.6387 67.2012 58.6387V56.6387ZM67.7492 56.6494C67.5884 56.3716 67.3648 55.9415 67.075 55.3457L65.2765 56.2207C65.5727 56.8293 65.8211 57.3107 66.0184 57.6514L67.7492 56.6494ZM67.0845 55.3657C66.8204 54.791 66.5283 54.0814 66.2081 53.2329L64.3369 53.939C64.6677 54.8157 64.9778 55.571 65.2671 56.2007L67.0845 55.3657ZM66.2058 53.227C65.8967 52.4233 65.6067 51.5006 65.3375 50.4556L63.4007 50.9545C63.685 52.058 63.9972 53.0559 64.3391 53.9449L66.2058 53.227ZM65.3384 50.4591C65.0706 49.4036 64.8406 48.2553 64.6495 47.013L62.6728 47.3171C62.8723 48.6139 63.1143 49.8256 63.3999 50.951L65.3384 50.4591ZM64.6516 47.0271C64.4795 45.7914 64.3926 44.4787 64.3926 43.0879H62.3926C62.3926 44.5617 62.4847 45.9671 62.6707 47.3029L64.6516 47.0271ZM64.3926 43.0879C64.3926 42.2608 64.4164 41.4251 64.4642 40.5809L62.4674 40.4679C62.4175 41.349 62.3926 42.2223 62.3926 43.0879H64.3926ZM64.463 40.5997C64.5279 39.7389 64.5929 38.9109 64.6578 38.1155L62.6644 37.9528C62.5992 38.7525 62.5339 39.5847 62.4687 40.4492L64.463 40.5997ZM64.6578 38.1155C64.7232 37.3146 64.7805 36.562 64.8296 35.8577L62.8345 35.7185C62.7859 36.4139 62.7293 37.1587 62.6644 37.9528L64.6578 38.1155ZM64.8279 35.8786C64.8949 35.1417 64.9297 34.4837 64.9297 33.9082H62.9297C62.9297 34.407 62.8994 35.0021 62.8361 35.6975L64.8279 35.8786ZM64.9297 33.9082C64.9297 33.314 64.8794 32.7648 64.7368 32.3131L62.8296 32.9154C62.8823 33.0822 62.9297 33.3957 62.9297 33.9082H64.9297ZM64.7368 32.3131C64.6393 32.0043 64.4564 31.6893 64.1413 31.459C63.8265 31.2289 63.4712 31.1504 63.1484 31.1504V33.1504C63.1512 33.1504 63.0645 33.1492 62.9613 33.0737C62.8577 32.9981 62.8295 32.9149 62.8296 32.9154L64.7368 32.3131ZM63.1484 31.1504C62.6252 31.1504 62.1968 31.4275 61.908 31.6657C61.5932 31.9253 61.278 32.2784 60.963 32.6898L62.5507 33.9059C62.8216 33.5523 63.0313 33.3317 63.1804 33.2088C63.2533 33.1486 63.2922 33.1282 63.2981 33.1255C63.3039 33.1227 63.2493 33.1504 63.1484 33.1504V31.1504ZM60.963 32.6898C60.339 33.5043 59.6547 34.5723 58.9104 35.8791L60.6482 36.869C61.3687 35.6041 62.0028 34.6213 62.5507 33.9059L60.963 32.6898ZM58.9083 35.8827C58.1813 37.1715 57.3997 38.661 56.5638 40.3492L58.3561 41.2367C59.1803 39.5721 59.945 38.1156 60.6503 36.8653L58.9083 35.8827ZM56.5604 40.3563C55.741 42.0441 54.9223 43.8126 54.1041 45.6618L55.933 46.471C56.7424 44.6418 57.5513 42.8947 58.3596 41.2297L56.5604 40.3563ZM54.1011 45.6686C53.3003 47.5153 52.5159 49.3863 51.748 51.2817L53.6016 52.0327C54.3636 50.1521 55.1417 48.2959 55.936 46.4642L54.1011 45.6686ZM51.7463 51.2858C50.9942 53.1663 50.3148 54.9424 49.7084 56.6141L51.5885 57.2961C52.1865 55.6474 52.8581 53.8917 53.6033 52.0286L51.7463 51.2858ZM51.1853 56.1114L50.3797 55.5987L49.3059 57.286L50.1116 57.7987L51.1853 56.1114ZM50.7915 56.7586C50.8131 56.6937 50.8003 56.732 50.8342 56.6304C50.8351 56.6276 50.8489 56.5864 50.8506 56.5812C50.8508 56.5805 50.8509 56.5803 50.8511 56.5796C50.8513 56.579 50.8515 56.5785 50.8517 56.5779C50.8519 56.5773 50.852 56.5769 50.8522 56.5763C50.8523 56.576 50.8524 56.5757 50.8525 56.5754C50.8526 56.5751 50.8527 56.5749 50.8528 56.5746C50.8531 56.5736 50.8547 56.5689 50.855 56.5679C50.8554 56.5669 50.8593 56.5552 50.8596 56.554C50.8617 56.5478 50.8623 56.5462 50.8644 56.5398C50.8669 56.5323 50.8667 56.5328 50.8693 56.5252C50.8736 56.5122 50.8852 56.4775 50.8903 56.4622C50.8934 56.4528 50.9096 56.4041 50.9135 56.3924L49.0162 55.7599C48.9862 55.8499 48.9546 55.9447 48.9368 55.998C48.9335 56.008 48.9326 56.0105 48.9295 56.02C48.9284 56.0232 48.927 56.0274 48.926 56.0304C48.9254 56.0323 48.925 56.0336 48.9243 56.0354C48.9239 56.0367 48.9239 56.0366 48.9235 56.0379C48.9235 56.0381 48.9228 56.0401 48.9227 56.0403C48.9206 56.0466 48.9122 56.0718 48.9109 56.0758C48.9096 56.0795 48.9069 56.0878 48.9058 56.091C48.9056 56.0915 48.9036 56.0975 48.9035 56.0979C48.9028 56.0999 48.902 56.1026 48.9013 56.1044C48.9005 56.107 48.8942 56.1259 48.8941 56.1262L50.7915 56.7586ZM50.9135 56.3924C51.0004 56.1318 51.0919 55.735 51.1896 55.2469L49.2284 54.8547C49.1307 55.3431 49.0595 55.6299 49.0162 55.7599L50.9135 56.3924ZM51.1882 55.2534C51.2945 54.7398 51.3961 54.0558 51.4951 53.2145L49.5088 52.9808C49.4125 53.7997 49.3188 54.4178 49.2297 54.8482L51.1882 55.2534ZM51.4951 53.2145C51.5958 52.3582 51.6867 51.2552 51.7687 49.9114L49.7724 49.7897C49.6915 51.1153 49.6034 52.1769 49.5088 52.9808L51.4951 53.2145ZM51.7679 49.9227C51.867 48.5513 51.9408 46.8991 51.9899 44.9688L49.9906 44.9179C49.942 46.8288 49.8693 48.448 49.7731 49.7785L51.7679 49.9227ZM51.9897 44.977C52.0553 43.0257 52.0879 40.719 52.0879 38.0586H50.0879C50.0879 40.7042 50.0554 42.9873 49.9908 44.9098L51.9897 44.977ZM52.0879 38.0586C52.0879 35.4388 51.9562 33.0917 51.689 31.0214L49.7055 31.2774C49.9592 33.2436 50.0879 35.5026 50.0879 38.0586H52.0879ZM51.689 31.0214C51.4245 28.9711 51.0834 27.1594 50.662 25.592L48.7306 26.1112C49.123 27.5711 49.4492 29.2913 49.7055 31.2774L51.689 31.0214ZM50.6646 25.6017C50.2645 24.0514 49.8166 22.7096 49.3156 21.5867L47.4891 22.4016C47.9321 23.3945 48.3468 24.6244 48.728 26.1014L50.6646 25.6017ZM49.3208 21.5985C48.8543 20.5156 48.402 19.607 47.9622 18.8856L46.2546 19.9269C46.6286 20.5401 47.039 21.3568 47.4839 22.3898L49.3208 21.5985ZM47.9714 18.9011C47.5706 18.2164 47.1911 17.6568 46.8344 17.2792L45.3804 18.6524C45.5772 18.8608 45.8649 19.2614 46.2454 19.9114L47.9714 18.9011ZM46.8344 17.2792C46.6977 17.1344 46.6013 17.0304 46.5414 16.9633C46.5268 16.947 46.5156 16.9343 46.5073 16.9247C46.4986 16.9146 46.4952 16.9105 46.4956 16.9109C46.4959 16.9113 46.4985 16.9145 46.5027 16.92C46.5064 16.9249 46.5149 16.9362 46.5258 16.9522C46.5342 16.9646 46.5577 16.9996 46.583 17.0487C46.5957 17.0733 46.6173 17.1177 46.6375 17.1761C46.648 17.2062 46.6607 17.2474 46.6712 17.2974C46.6814 17.3461 46.6924 17.4165 46.6924 17.502H44.6924C44.6924 17.7678 44.8032 17.9611 44.805 17.9646C44.8325 18.0179 44.8592 18.0582 44.8719 18.0769C44.8995 18.1173 44.9262 18.151 44.9411 18.1693C44.9741 18.2101 45.0131 18.2547 45.0509 18.2969C45.1293 18.3845 45.2405 18.5043 45.3804 18.6524L46.8344 17.2792ZM46.4733 18.1266L46.9615 17.5163L45.3998 16.2669L44.9115 16.8773L46.4733 18.1266ZM45.7335 17.786C45.7311 17.7849 45.7768 17.8097 45.902 17.889C46.0147 17.9604 46.1661 18.0593 46.3584 18.1875L47.4678 16.5234C47.0991 16.2776 46.7945 16.0805 46.6279 15.9972L45.7335 17.786ZM46.3986 18.213C46.7134 18.4019 47.1232 18.7265 47.633 19.2208L49.0252 17.785C48.4608 17.2377 47.9265 16.7974 47.4276 16.498L46.3986 18.213ZM47.6444 19.2318C48.1251 19.6834 48.6555 20.2932 49.2342 21.0753L50.8419 19.8856C50.2163 19.0401 49.6073 18.3316 49.0138 17.7741L47.6444 19.2318ZM49.2342 21.0753C49.7807 21.8137 50.2981 22.7358 50.7798 23.8544L52.6167 23.0635C52.0892 21.8384 51.4999 20.7748 50.8419 19.8856L49.2342 21.0753ZM50.7866 23.8699C51.2716 24.946 51.6751 26.2255 51.9892 27.7177L53.9463 27.3057C53.6094 25.7054 53.1666 24.2831 52.6099 23.0481L50.7866 23.8699ZM51.9913 27.7276C52.3141 29.1877 52.4805 30.8791 52.4805 32.8096H54.4805C54.4805 30.7687 54.305 28.9282 53.9442 27.2959L51.9913 27.7276ZM52.4805 32.8096C52.4805 34.3645 52.4244 36.0194 52.3116 37.7748L54.3075 37.903C54.4226 36.1101 54.4805 34.4122 54.4805 32.8096H52.4805ZM52.3116 37.7748C52.1987 39.5329 52.0455 41.2579 51.8522 42.9499L53.8392 43.177C54.0365 41.4511 54.1926 39.693 54.3075 37.903L52.3116 37.7748ZM51.8511 42.9593C51.6732 44.6576 51.4794 46.2401 51.2698 47.7072L53.2497 47.9901C53.4633 46.4949 53.6601 44.8873 53.8403 43.1677L51.8511 42.9593ZM51.2698 47.7072C51.0597 49.1784 50.859 50.3968 50.6682 51.3665L52.6306 51.7526C52.8305 50.7367 53.0367 49.4811 53.2497 47.9901L51.2698 47.7072ZM52.5795 51.927C53.0979 50.6147 53.6899 49.155 54.3555 47.5477L52.5077 46.7824C51.8388 48.3977 51.2426 49.8677 50.7194 51.1921L52.5795 51.927ZM54.3522 47.5556C55.0306 45.9567 55.7577 44.3327 56.5337 42.6836L54.7241 41.832C53.9376 43.5033 53.1999 45.1508 52.5111 46.7745L54.3522 47.5556ZM56.5337 42.6836C57.3067 41.0411 58.1113 39.4561 58.9475 37.9284L57.1931 36.9681C56.3366 38.5329 55.5136 40.1542 54.7241 41.832L56.5337 42.6836ZM58.9458 37.9316C59.7938 36.3954 60.6372 35.036 61.4749 33.8505L59.8415 32.6963C58.954 33.9523 58.072 35.3761 57.1949 36.9649L58.9458 37.9316ZM61.4749 33.8505C62.3054 32.6753 63.1073 31.7652 63.8761 31.0999L62.5673 29.5876C61.6433 30.3872 60.7363 31.4301 59.8415 32.6963L61.4749 33.8505ZM63.8761 31.0999C64.6229 30.4536 65.2041 30.2451 65.6387 30.2451V28.2451C64.5432 28.2451 63.5131 28.7691 62.5673 29.5876L63.8761 31.0999ZM65.6387 30.2451C65.5825 30.2451 65.5281 30.2331 65.4827 30.2137C65.44 30.1955 65.4203 30.1773 65.4217 30.1785C65.4239 30.1805 65.4429 30.1987 65.4744 30.2452C65.5056 30.2914 65.5442 30.3581 65.5877 30.4508L67.3986 29.6019C67.1222 29.0123 66.5886 28.2451 65.6387 28.2451V30.2451ZM65.6045 30.485C65.7567 30.7799 65.8838 31.3314 65.8838 32.248H67.8838C67.8838 31.2116 67.7504 30.282 67.3818 29.5677L65.6045 30.485ZM65.8838 32.248C65.8838 32.8773 65.8453 33.6442 65.7655 34.5532L67.7579 34.728C67.8409 33.7816 67.8838 32.9534 67.8838 32.248H65.8838ZM65.7657 34.5517C65.6842 35.4646 65.5946 36.4912 65.4968 37.6314L67.4895 37.8022C67.5871 36.6638 67.6765 35.6396 67.7578 34.7296L65.7657 34.5517ZM65.4968 37.6314C65.3983 38.7805 65.3082 40.0342 65.2264 41.392L67.2228 41.5123C67.3038 40.1683 67.3927 38.9318 67.4895 37.8022L65.4968 37.6314ZM65.2265 41.3913C65.1437 42.7488 65.1025 44.2016 65.1025 45.749H67.1025C67.1025 44.2366 67.1428 42.8247 67.2228 41.513L65.2265 41.3913ZM65.1025 45.749C65.1025 47.2033 65.1861 48.7117 65.3523 50.2738L67.3411 50.0622C67.1817 48.5644 67.1025 47.1268 67.1025 45.749H65.1025ZM65.3523 50.2738C65.5226 51.8747 65.8707 53.5173 66.3925 55.2004L68.3028 54.6082C67.8155 53.0361 67.4963 51.5211 67.3411 50.0622L65.3523 50.2738ZM68.3288 55.0973C68.5222 54.1143 68.781 52.8851 69.1056 51.408L67.1522 50.9787C66.8258 52.4639 66.5637 53.7086 66.3665 54.7113L68.3288 55.0973ZM69.1056 51.408C69.4285 49.9389 69.8166 48.3052 70.2704 46.5063L68.3312 46.0171C67.8735 47.8316 67.4804 49.4856 67.1522 50.9787L69.1056 51.408ZM70.2704 46.5063C70.7238 44.7091 71.2342 42.7969 71.8018 40.7696L69.8759 40.2304C69.3042 42.2721 68.7893 44.2011 68.3312 46.0171L70.2704 46.5063ZM71.8004 40.7747C72.3824 38.7377 73.0212 36.6675 73.717 34.564L71.8182 33.936C71.1142 36.0643 70.4672 38.1607 69.8773 40.2253L71.8004 40.7747ZM73.7155 34.5684C74.4263 32.4521 75.1938 30.3437 76.0178 28.2431L74.156 27.5127C73.3199 29.6439 72.5411 31.7835 71.8196 33.9316L73.7155 34.5684ZM76.0164 28.2469C76.8538 26.1371 77.747 24.1095 78.6957 22.1639L76.898 21.2873C75.9262 23.2805 75.0127 25.3544 74.1575 27.509L76.0164 28.2469ZM78.6928 22.1698C79.6542 20.231 80.678 18.4158 81.7636 16.7235L80.0802 15.6436C78.9522 17.4019 77.8927 19.2814 76.901 21.2813L78.6928 22.1698ZM81.7636 16.7235C82.8424 15.0419 83.9788 13.5598 85.1709 12.2735L83.7041 10.914C82.4223 12.297 81.2149 13.8748 80.0802 15.6436L81.7636 16.7235ZM85.175 12.2691C86.3584 10.9767 87.591 9.93996 88.8701 9.14812L87.8174 7.44759C86.3622 8.34845 84.9905 9.50901 83.7 10.9184L85.175 12.2691ZM88.8728 9.14641C90.1481 8.35124 91.4683 7.85721 92.8383 7.65097L92.5406 5.67325C90.8833 5.92274 89.3063 6.51921 87.8147 7.44929L88.8728 9.14641ZM91.7075 6.8514L92.0982 8.87776L94.062 8.49919L93.6714 6.47282L91.7075 6.8514ZM92.9246 7.70064C91.0097 8.00206 89.2104 8.73764 87.5331 9.8908L88.6661 11.5389C90.1138 10.5436 91.6349 9.92828 93.2356 9.67631L92.9246 7.70064ZM87.5291 9.89359C85.8996 11.0256 84.3778 12.4486 82.9606 14.1526L84.4983 15.4314C85.8156 13.8476 87.2072 12.5525 88.6702 11.5361L87.5291 9.89359ZM82.9638 14.1488C81.5523 15.8291 80.2405 17.7444 79.0262 19.8903L80.7668 20.8753C81.9287 18.822 83.1723 17.0101 84.4952 15.4352L82.9638 14.1488ZM79.0249 19.8926C77.8362 22.0057 76.7312 24.2243 75.7096 26.5477L77.5404 27.3527C78.537 25.0863 79.613 22.9265 80.7681 20.8731L79.0249 19.8926ZM75.7072 26.5531C74.7044 28.8711 73.784 31.238 72.9459 33.6537L74.8354 34.3092C75.6574 31.9398 76.5599 29.6191 77.5428 27.3473L75.7072 26.5531ZM72.9439 33.6594C72.1253 36.066 71.3881 38.4086 70.7324 40.6873L72.6544 41.2404C73.3007 38.9944 74.0283 36.6821 74.8374 34.3035L72.9439 33.6594ZM70.7329 40.6855C70.0784 42.9435 69.5049 45.0814 69.0129 47.099L70.9559 47.5729C71.4404 45.5865 72.0062 43.4764 72.6538 41.2423L70.7329 40.6855ZM69.0115 47.1047C68.5384 49.0947 68.1382 50.8428 67.8109 52.3481L69.7653 52.773C70.0891 51.2835 70.4863 49.5485 70.9573 47.5672L69.0115 47.1047ZM67.8088 52.3583C67.4989 53.8584 67.2614 55.0542 67.0968 55.9429L69.0634 56.3071C69.2243 55.438 69.4587 54.2575 69.7674 52.7628L67.8088 52.3583ZM67.0962 55.9461C67.0147 56.3946 66.953 56.7399 66.9115 56.9805C66.8909 57.1002 66.8746 57.1978 66.8632 57.2707C66.8576 57.3066 66.8524 57.3415 66.8483 57.3724C66.8476 57.3778 66.8359 57.4575 66.8359 57.541H68.8359C68.8359 57.6123 68.8268 57.6666 68.8312 57.6333C68.8322 57.6256 68.8346 57.6086 68.8392 57.5794C68.8482 57.5221 68.8624 57.4366 68.8824 57.3203C68.9223 57.0889 68.9827 56.7506 69.0639 56.3039L67.0962 55.9461ZM67.7592 56.544L67.1245 56.5928L67.2779 58.5869L67.9126 58.5381L67.7592 56.544Z" fill="#E6B001"/>
</g>
<defs>
<filter id="filter0_d_20_26" x="0.511719" y="0.662109" width="102.568" height="72.3438" filterUnits="userSpaceOnUse" color-interpolation-filters="sRGB">
<feFlood flood-opacity="0" result="BackgroundImageFix"/>
<feColorMatrix in="SourceAlpha" type="matrix" values="0 0 0 0 0 0 0 0 0 0 0 0 0 0 0 0 0 0 127 0" result="hardAlpha"/>
<feOffset dy="4"/>
<feGaussianBlur stdDeviation="5"/>
<feColorMatrix type="matrix" values="0 0 0 0 0 0 0 0 0 0 0 0 0 0 0 0 0 0 0.25 0"/>
<feBlend mode="normal" in2="BackgroundImageFix" result="effect1_dropShadow_20_26"/>
<feBlend mode="normal" in="SourceGraphic" in2="effect1_dropShadow_20_26" result="shape"/>
</filter>
</defs>
</svg>
