<svg width="50" height="50" viewBox="0 0 50 50" fill="none" xmlns="http://www.w3.org/2000/svg">
<path d="M34.3851 20.1774C34.4003 20.3882 34.4003 20.5979 34.4003 20.8075C34.4003 27.223 29.6639 34.6155 21.0081 34.6155C18.3414 34.6155 15.864 33.8192 13.7792 32.4361C14.1578 32.4807 14.5224 32.4963 14.9162 32.4963C17.0349 32.5016 19.0935 31.7712 20.7604 30.4229C19.7781 30.4046 18.8259 30.0704 18.0367 29.4672C17.2475 28.8639 16.6607 28.0216 16.3583 27.0579C16.6493 27.1025 16.9414 27.1326 17.2476 27.1326C17.6694 27.1326 18.0936 27.0724 18.4875 26.9676C17.4214 26.7457 16.4628 26.1499 15.7747 25.2817C15.0866 24.4134 14.7114 23.3263 14.7129 22.2051V22.1448C15.3404 22.505 16.0685 22.7303 16.8397 22.7605C16.1936 22.3178 15.6638 21.7171 15.2976 21.0121C14.9314 20.307 14.7401 19.5194 14.7409 18.7196C14.7409 17.8184 14.9735 16.9919 15.3813 16.2715C16.5641 17.7715 18.0393 18.9986 19.7114 19.8734C21.3834 20.7482 23.2151 21.2511 25.0877 21.3497C25.0152 20.9882 24.9708 20.6135 24.9708 20.2376C24.9705 19.6003 25.0921 18.9691 25.3285 18.3801C25.565 17.7912 25.9117 17.2561 26.3488 16.8054C26.786 16.3547 27.305 15.9973 27.8763 15.7535C28.4475 15.5098 29.0597 15.3844 29.6779 15.3848C31.0335 15.3848 32.257 15.9703 33.1171 16.9173C34.1709 16.7072 35.1815 16.3105 36.1041 15.745C35.7528 16.8664 35.017 17.8174 34.0345 18.4196C34.9691 18.3097 35.8825 18.0563 36.7445 17.6678C36.1007 18.6354 35.303 19.4839 34.3851 20.1774Z" fill="white"/>
<circle cx="25" cy="25" r="24" stroke="white" stroke-width="2"/>
</svg>
