<svg width="66" height="65" viewBox="0 0 66 65" fill="none" xmlns="http://www.w3.org/2000/svg">
<path d="M45.5727 26.2304C45.5925 26.5045 45.5925 26.777 45.5925 27.0496C45.5925 35.3897 39.4352 45 28.1827 45C24.7159 45 21.4953 43.9647 18.7851 42.1667C19.2773 42.2247 19.7513 42.245 20.2632 42.245C23.0175 42.2519 25.6937 41.3024 27.8606 39.5496C26.5836 39.5257 25.3457 39.0914 24.3198 38.3071C23.2938 37.5229 22.531 36.4279 22.1379 35.1751C22.5162 35.2331 22.896 35.2722 23.294 35.2722C23.8424 35.2722 24.3939 35.1939 24.9058 35.0576C23.52 34.7692 22.2738 33.9947 21.3792 32.866C20.4847 31.7373 19.9969 30.324 19.9989 28.8664V28.7881C20.8147 29.2564 21.7611 29.5492 22.7638 29.5884C21.9238 29.0129 21.2351 28.2321 20.759 27.3155C20.2829 26.3989 20.0343 25.375 20.0353 24.3353C20.0353 23.1638 20.3377 22.0893 20.8679 21.1527C22.4055 23.1027 24.3232 24.698 26.4969 25.8352C28.6706 26.9724 31.0518 27.6263 33.4861 27.7544C33.392 27.2845 33.3342 26.7974 33.3342 26.3087C33.3338 25.4801 33.4918 24.6596 33.7992 23.894C34.1066 23.1284 34.5573 22.4328 35.1256 21.8469C35.6939 21.261 36.3687 20.7963 37.1113 20.4794C37.8539 20.1625 38.6498 19.9996 39.4535 20C41.2157 20 42.8063 20.7612 43.9244 21.9922C45.2944 21.7191 46.6081 21.2035 47.8074 20.4683C47.3508 21.9262 46.3942 23.1624 45.117 23.9453C46.332 23.8024 47.5194 23.473 48.6399 22.968C47.8031 24.2258 46.7661 25.3288 45.5727 26.2304Z" fill="#E6B001"/>
<circle cx="33.3722" cy="32.5" r="31.5" stroke="#ADB901" stroke-width="2"/>
</svg>
